<?xml version="1.0" encoding="UTF-8" standalone="no"?>
<!DOCTYPE svg PUBLIC "-//W3C//DTD SVG 1.1//EN" "http://www.w3.org/Graphics/SVG/1.1/DTD/svg11.dtd">
<svg width="100%" height="100%" viewBox="0 0 137 137" version="1.1" xmlns="http://www.w3.org/2000/svg" xmlns:xlink="http://www.w3.org/1999/xlink" xml:space="preserve" xmlns:serif="http://www.serif.com/" style="fill-rule:evenodd;clip-rule:evenodd;stroke-linejoin:round;stroke-miterlimit:2;">
    <g transform="matrix(1,0,0,1,-59.8163,-39.8733)">
        <g id="Box" transform="matrix(1,0,0,1,-180.906,-335.344)">
            <g>
                <clipPath id="_clip1">
                    <path d="M276.48,414.233L283.737,423.22L291.61,432.898L299.839,433.134L307.603,429.897L317.449,433.452L324.947,433.067L328.175,427.606L314.589,423.398L282.958,413.278L276.36,373.362L404.366,346.47L409.669,528.27L208.144,553.786L237.312,414.246L276.48,414.233Z"/>
                </clipPath>
                <g clip-path="url(#_clip1)">
                    <g>
                        <clipPath id="_clip2">
                            <path d="M308.241,423.072L307.619,421.634L274.738,377.3L269.283,375.49L259.737,378.361L257.125,386.079L282.946,419.995L285.041,422.22L306.912,428.797C307.718,430.138 311.635,430.217 313.118,430.663C313.118,430.663 323.478,434.368 324.716,432.606L358.02,385.21C358.943,383.896 359.179,382.218 358.654,380.7C358.129,379.182 356.906,378.009 355.368,377.547L347.469,375.171C345.441,374.562 343.248,375.296 341.996,377.004L308.241,423.072ZM346.029,379.96L311.558,427.004L320.625,429.731L353.929,382.335L346.029,379.96ZM205.492,329.726L218.75,544.217L428.231,551.394L417.624,321.752L205.492,329.726Z"/>
                        </clipPath>
                        <g clip-path="url(#_clip2)">
                            <g id="Top" transform="matrix(1,0,0,0.993297,0,2.73023)">
                                <g>
                                    <clipPath id="_clip3">
                                        <path d="M309.77,448.492L308.042,448.492C308.606,448.663 309.207,448.663 309.77,448.492ZM308.906,410.222L362.128,426.334L308.906,442.446L255.684,426.334L308.906,410.222Z"/>
                                    </clipPath>
                                    <g clip-path="url(#_clip3)">
                                        <path d="M308.906,407.068L245.267,426.334L308.906,445.6L372.546,426.334L308.906,407.068Z" style="fill:rgb(100,77,63);fill-rule:nonzero;"/>
                                    </g>
                                </g>
                            </g>
                            <g>
                                <clipPath id="_clip4">
                                    <path d="M311.906,447.576L367.148,430.963L367.243,489.996L311.906,511.63L311.906,447.576Z"/>
                                </clipPath>
                                <g clip-path="url(#_clip4)">
                                    <path d="M308.906,445.344L308.906,517.344L372.546,490.444L372.546,426.244L308.906,445.344Z" style="fill:rgb(100,77,63);fill-rule:nonzero;"/>
                                </g>
                            </g>
                            <g>
                                <clipPath id="_clip5">
                                    <path d="M305.906,447.574L305.906,511.63L250.573,486.808L250.664,430.963L305.906,447.574Z"/>
                                </clipPath>
                                <g clip-path="url(#_clip5)">
                                    <path d="M308.906,445.344L245.267,426.207L245.267,490.448L308.906,517.344L308.906,445.344Z" style="fill:rgb(100,77,63);fill-rule:nonzero;"/>
                                </g>
                            </g>
                        </g>
                    </g>
                </g>
            </g>
        </g>
        <g id="Antenna">
            <path d="M80.27,47.805L106.787,84.484L114.667,94.553L122.697,89.268L89.816,44.935L80.27,47.805Z" style="fill:rgb(100,77,63);"/>
            <path d="M165.123,44.616L130.652,91.661L139.719,94.387L173.022,46.991L165.123,44.616Z" style="fill:rgb(100,77,63);"/>
            <g transform="matrix(2.25685,0,0,2.82783,-102.422,-90.0723)">
                <ellipse cx="84" cy="49.071" rx="4" ry="3.071" style="fill:rgb(100,77,63);"/>
            </g>
            <g transform="matrix(2.28626,0,0,2.38229,-197.52,-69.7119)">
                <ellipse cx="160.063" cy="49.568" rx="3.937" ry="3.568" style="fill:rgb(100,77,63);"/>
            </g>
        </g>
    </g>
</svg>
