<?xml version="1.0" encoding="UTF-8" standalone="no"?>
<!DOCTYPE svg PUBLIC "-//W3C//DTD SVG 1.1//EN" "http://www.w3.org/Graphics/SVG/1.1/DTD/svg11.dtd">
<svg width="100%" height="100%" viewBox="0 0 256 256" version="1.1" xmlns="http://www.w3.org/2000/svg" xmlns:xlink="http://www.w3.org/1999/xlink" xml:space="preserve" xmlns:serif="http://www.serif.com/" style="fill-rule:evenodd;clip-rule:evenodd;stroke-linejoin:round;stroke-miterlimit:2;">
    <g id="Background" transform="matrix(1,0,0,1,-0.00110013,0.0674869)">
        <path d="M256.001,10.689C256.001,4.752 251.181,-0.067 245.245,-0.067L10.756,-0.067C4.82,-0.067 0,4.752 0,10.689L0,245.251C0,251.188 4.82,256.008 10.756,256.008L245.245,256.008C251.181,256.008 256.001,251.188 256.001,245.251L256.001,10.689Z" style="fill:rgb(36,36,36);"/>
    </g>
    <g transform="matrix(1,0,0,1,1.68199e-14,16.996)">
        <g id="Box" transform="matrix(1,0,0,1,-180.906,-335.344)">
            <g id="Top" transform="matrix(1,0,0,0.993297,0,2.73023)">
                <path d="M308.906,407.068L245.267,426.334L308.906,445.6L372.546,426.334L308.906,407.068Z" style="fill:rgb(160,128,105);fill-rule:nonzero;"/>
            </g>
            <path id="Side" d="M308.906,445.344L308.906,517.344L372.546,490.444L372.546,426.244L308.906,445.344Z" style="fill:rgb(160,128,105);fill-rule:nonzero;stroke:rgb(36,36,36);stroke-width:6px;"/>
            <path id="Left" d="M308.906,445.344L245.267,426.207L245.267,490.448L308.906,517.344L308.906,445.344Z" style="fill:rgb(160,128,105);fill-rule:nonzero;stroke:rgb(36,36,36);stroke-width:6px;"/>
        </g>
        <path id="Tape" d="M151.227,103.029L151.227,132.932L166.775,128.039L166.871,98.334L133.682,88.054L102.052,77.934L85.574,82.89L151.227,103.029Z" style="fill:rgb(36,36,36);"/>
        <g id="Antenna">
            <path d="M80.27,47.805L106.787,84.484L122.697,89.268L89.816,44.935L80.27,47.805Z" style="fill:rgb(160,128,105);"/>
            <path d="M78.83,43.017C77.281,43.483 76.053,44.669 75.534,46.202C75.015,47.734 75.27,49.423 76.218,50.734L102.735,87.413C103.378,88.303 104.296,88.956 105.347,89.272L121.257,94.056C123.321,94.677 125.55,93.905 126.788,92.142C128.027,90.379 127.997,88.02 126.713,86.289L93.832,41.956C92.577,40.264 90.395,39.54 88.376,40.147L78.83,43.017ZM80.27,47.805L106.787,84.484L122.697,89.268L89.816,44.935L80.27,47.805Z" style="fill:rgb(36,36,36);"/>
            <path d="M165.123,44.616L130.652,91.661L139.719,94.387L173.022,46.991L165.123,44.616Z" style="fill:rgb(160,128,105);"/>
            <path d="M166.563,39.828C164.534,39.218 162.342,39.952 161.09,41.661L126.619,88.706C125.659,90.015 125.395,91.709 125.911,93.249C126.427,94.789 127.658,95.982 129.212,96.449L138.279,99.175C140.343,99.796 142.571,99.024 143.81,97.262L177.113,49.866C178.036,48.552 178.272,46.874 177.747,45.356C177.222,43.838 176,42.665 174.462,42.203L166.563,39.828ZM165.123,44.616L130.652,91.661L139.719,94.387L173.022,46.991L165.123,44.616Z" style="fill:rgb(36,36,36);"/>
            <g transform="matrix(2.25685,0,0,2.82783,-102.422,-90.0723)">
                <ellipse cx="84" cy="49.071" rx="4" ry="3.071" style="fill:rgb(160,128,105);"/>
            </g>
            <g transform="matrix(2.28626,0,0,2.38229,-197.52,-69.7119)">
                <ellipse cx="160.063" cy="49.568" rx="3.937" ry="3.568" style="fill:rgb(160,128,105);"/>
            </g>
        </g>
        <g id="Top1" serif:id="Top" transform="matrix(1,0,0,0.993297,-180.906,-332.614)">
            <path d="M275.725,419.059L255.873,424.729L308.906,440.784L328.153,435.202L275.725,419.059Z" style="fill:rgb(160,128,105);fill-rule:nonzero;"/>
        </g>
        <g id="Left-side-tape" serif:id="Left side tape" transform="matrix(1,0,0,1,1.3325,-10.3927)">
            <path d="M95.996,92.937L147.881,109.23L142.996,111.304L89.517,94.885L95.996,92.937Z" style="fill:rgb(36,36,36);"/>
        </g>
    </g>
</svg>
