<?xml version="1.0" encoding="UTF-8" standalone="no"?>
<!DOCTYPE svg PUBLIC "-//W3C//DTD SVG 1.1//EN" "http://www.w3.org/Graphics/SVG/1.1/DTD/svg11.dtd">
<svg width="100%" height="100%" viewBox="0 0 448 512" version="1.1" xmlns="http://www.w3.org/2000/svg" xmlns:xlink="http://www.w3.org/1999/xlink" xml:space="preserve" xmlns:serif="http://www.serif.com/" style="fill-rule:evenodd;clip-rule:evenodd;stroke-linecap:round;stroke-linejoin:round;stroke-miterlimit:1.5;">
    <g transform="matrix(1,0,0,1,-3.2e-05,11.7746)">
        <g transform="matrix(1,0,0,0.862745,0,51.2755)">
            <path d="M112,304L112,406" style="fill:none;stroke:currentColor;stroke-width:34.27px;"/>
        </g>
        <g transform="matrix(6.12323e-17,-1,0.862745,5.28279e-17,-194.275,469.55)">
            <path d="M112,304L112,406" style="fill:none;stroke:currentColor;stroke-width:34.27px;"/>
        </g>
        <g transform="matrix(0.914286,0,0,0.914286,-102.4,228.179)">
            <path d="M234.5,19C302.11,19 357,73.89 357,141.5C357,209.11 302.11,264 234.5,264C166.89,264 112,209.11
            112,141.5C112,73.89 166.89,19 234.5,19ZM234.5,51C284.448,51 325,91.552 325,141.5C325,191.448 284.448,232
            234.5,232C184.552,232 144,191.448 144,141.5C144,91.552 184.552,51 234.5,51Z" style="fill:currentColor;"/>
        </g>
    </g>
    <g>
        <path d="M46.118,256.805C45.023,253.925 43.98,251.061 42.995,248.224C36.058,228.246 32,209.603 32,193.325C32,87.325 118,1.325 224,1.325C330,1.325 416,87.325 416,193.325C416,280.725 299,436.325 247.7,500.525C235.4,515.825 212.6,515.825 200.3,500.525C195.165,494.099 189.372,486.758 183.1,478.654C192.127,472.841 200.39,465.955 207.71,458.173C213.612,465.804 219.097,472.766 224,478.915C254.236,440.992 306.402,372.394 343.528,305.243C366.236,264.171 384,224.159 384,193.325C384,104.992 312.333,33.325 224,33.325C135.667,33.325 64,104.992 64,193.325C64,207.324 67.662,223.215 73.785,240.238C74.273,241.595 74.777,242.959 75.297,244.333C64.988,247.322 55.202,251.537 46.118,256.805Z" style="fill:currentColor;"/>
    </g>
    <g transform="matrix(1,0,0,1,32,1.325)">
        <path d="M192,128C227.109,128 256,156.891 256,192C256,227.109 227.109,256 192,256C156.891,256 128,227.109 128,192C128,156.891 156.891,128 192,128Z" style="fill:none;fill-rule:nonzero;stroke:currentColor;stroke-width:32px;stroke-linecap:butt;stroke-miterlimit:2;"/>
    </g>
</svg>
