<?xml version="1.0" encoding="UTF-8" standalone="no"?>
<!DOCTYPE svg PUBLIC "-//W3C//DTD SVG 1.1//EN" "http://www.w3.org/Graphics/SVG/1.1/DTD/svg11.dtd">
<svg width="100%" height="100%" viewBox="0 0 576 512" version="1.1" xmlns="http://www.w3.org/2000/svg" xmlns:xlink="http://www.w3.org/1999/xlink" xml:space="preserve" xmlns:serif="http://www.serif.com/" style="fill-rule:evenodd;clip-rule:evenodd;stroke-linejoin:round;stroke-miterlimit:2;">
    <path d="M200,208C214.2,208 227,214.1 235.8,224C244.6,233.9 259.8,234.7 269.7,225.9C279.6,217.1 280.4,201.9
    271.6,192C254.1,172.4 228.5,160 200.1,160C147.1,160 104.1,203 104.1,256C104.1,309 147.1,352 200.1,352C228.5,352
    254.1,339.6 271.6,320C280.4,310.1 279.6,295 269.7,286.1C259.8,277.2 244.7,278.1 235.8,288C227,297.9 214.2,304
    200,304C173.5,304 152,282.5 152,256C152,229.5 173.5,208 200,208ZM344,256C344,229.5 365.5,208 392,208C406.2,208
    419,214.1 427.8,224C436.6,233.9 451.8,234.7 461.7,225.9C471.6,217.1 472.4,201.9 463.6,192C446.1,172.4 420.5,160
    392.1,160C339.1,160 296.1,203 296.1,256C296.1,309 339.1,352 392.1,352C420.5,352 446.1,339.6 463.6,320C472.4,310.1
    471.6,295 461.7,286.1C451.8,277.2 436.7,278.1 427.8,288C419,297.9 406.2,304 392,304C365.5,304 344,282.5 344,256Z"
    style="fill-rule:nonzero; fill: currentColor;"/>
    <g transform="matrix(5.93814,0,0,8.96,-534.433,-39.68)">
        <path d="M187,15.078C187,11.172 182.214,8 176.32,8L100.68,8C94.786,8 90,11.172 90,15.078L90,50.922C90,54.828 94.786,58 100.68,58L176.32,58C182.214,58 187,54.828 187,50.922L187,15.078ZM181.611,15.078L181.611,50.922C181.611,52.857 179.24,54.429 176.32,54.429L100.68,54.429C97.76,54.429 95.389,52.857 95.389,50.922L95.389,15.078C95.389,13.143 97.76,11.571 100.68,11.571C100.68,11.571 176.32,11.571 176.32,11.571C179.24,11.571 181.611,13.143 181.611,15.078Z" style="fill:currentColor;"/>
    </g>
</svg>
