<?xml version="1.0" encoding="UTF-8" standalone="no"?>
<!DOCTYPE svg PUBLIC "-//W3C//DTD SVG 1.1//EN" "http://www.w3.org/Graphics/SVG/1.1/DTD/svg11.dtd">
<svg width="100%" height="100%" viewBox="0 0 512 512" version="1.1" xmlns="http://www.w3.org/2000/svg" xmlns:xlink="http://www.w3.org/1999/xlink" xml:space="preserve" xmlns:serif="http://www.serif.com/" style="fill-rule:evenodd;clip-rule:evenodd;stroke-linecap:round;stroke-linejoin:round;stroke-miterlimit:1.5;">
    <g transform="matrix(1,0,0,0.933333,32,17.0667)">
        <path d="M48,16L48,496" style="fill:none;stroke:currentColor;stroke-width:64px;"/>
    </g>
    <g transform="matrix(0.909091,0,0,0.947368,30.5455,21.0526)">
        <path style="fill:currentColor;stroke:none;" d="M336,138.222C336,114.919 316.284,96 292,96L204,96C179.716,96 160,114.919 160,138.222L160,357.778C160,381.081 179.716,400 204,400L292,400C316.284,400 336,381.081 336,357.778L336,138.222Z"/>
    </g>
    <g transform="matrix(1,0,0,0.933333,-32,17.0667)">
        <path d="M464,16L464,496" style="fill:none;stroke:currentColor;stroke-width:64px;"/>
    </g>
</svg>
