<?xml version="1.0" encoding="UTF-8" standalone="no"?>
<!DOCTYPE svg PUBLIC "-//W3C//DTD SVG 1.1//EN" "http://www.w3.org/Graphics/SVG/1.1/DTD/svg11.dtd">
<svg width="100%" height="100%" viewBox="0 0 512 512" version="1.1" xmlns="http://www.w3.org/2000/svg" xmlns:xlink="http://www.w3.org/1999/xlink" xml:space="preserve" xmlns:serif="http://www.serif.com/" style="fill-rule:evenodd;clip-rule:evenodd;stroke-linecap:round;stroke-linejoin:round;stroke-miterlimit:1.5;">
    <g transform="matrix(1,0,0,1,64,-7.10543e-15)">
        <path d="M48,16L48,496" style="fill:none;stroke:currentColor;stroke-width:32px;"/>
    </g>
    <g transform="matrix(1.15385,0,0,1,-39.3846,0)">
        <path d="M464,63.922C464,37.473 445.39,16 422.468,16L89.532,16C66.61,16 48,37.473 48,63.922L48,448.078C48,474.527 66.61,496 89.532,496L422.468,496C445.39,496 464,474.527 464,448.078L464,63.922Z" style="fill:none;stroke:currentColor;stroke-width:29.64px;"/>
    </g>
    <g transform="matrix(1,0,0,1,-64,-1.42109e-14)">
        <path d="M464,16L464,496" style="fill:none;stroke:currentColor;stroke-width:32px;"/>
    </g>
</svg>
