<?xml version="1.0" encoding="UTF-8" standalone="no"?>
<!DOCTYPE svg PUBLIC "-//W3C//DTD SVG 1.1//EN" "http://www.w3.org/Graphics/SVG/1.1/DTD/svg11.dtd">
<svg width="100%" height="100%" viewBox="0 0 512 512" version="1.1" xmlns="http://www.w3.org/2000/svg" xmlns:xlink="http://www.w3.org/1999/xlink" xml:space="preserve" xmlns:serif="http://www.serif.com/" style="fill-rule:evenodd;clip-rule:evenodd;stroke-linejoin:round;stroke-miterlimit:2;">
    <path d="M256,32C378.883,32 480,133.117 480,256C480,378.883 378.883,480 256,480C133.117,480 32,378.883
    32,256C32,133.117 133.117,32 256,32ZM256,512C396.437,512 512,396.437 512,256C512,115.563 396.437,0 256,0C115.563,0
    -0,115.563 0,256C0,396.437 115.563,512 256,512ZM208,352C199.2,352 192,359.2 192,368C192,376.8 199.2,384
    208,384L304,384C312.8,384 320,376.8 320,368C320,359.2 312.8,352 304,352L272,352L272,240C272,231.2 264.8,224
    256,224L216,224C207.2,224 200,231.2 200,240C200,248.8 207.2,256 216,256L240,256L240,352L208,352ZM256,184C269.166,184
    280,173.166 280,160C280,146.834 269.166,136 256,136C242.834,136 232,146.834 232,160C232,173.166 242.834,184
    256,184Z" style="fill-rule:nonzero;" fill="currentColor" />
</svg>
