<?xml version="1.0" encoding="UTF-8" standalone="no"?>
<!DOCTYPE svg PUBLIC "-//W3C//DTD SVG 1.1//EN" "http://www.w3.org/Graphics/SVG/1.1/DTD/svg11.dtd">
<svg width="100%" height="100%" viewBox="0 0 512 512" version="1.1" xmlns="http://www.w3.org/2000/svg" xmlns:xlink="http://www.w3.org/1999/xlink" xml:space="preserve" xmlns:serif="http://www.serif.com/" style="fill-rule:evenodd;clip-rule:evenodd;stroke-linecap:round;stroke-linejoin:round;stroke-miterlimit:1.5;">
    <g transform="matrix(5.56658e-17,0.909091,-0.947368,5.80096e-17,490.947,30.5453)">
        <path d="M336,138.222C336,114.919 316.284,96 292,96L204,96C179.716,96 160,114.919 160,138.222L160,357.778C160,381.081 179.716,400 204,400L292,400C316.284,400 336,381.081 336,357.778L336,138.222Z" style="fill:currentColor;stroke:none;stroke-width:34.47px;"/>
    </g>
    <path style="fill:currentColor;" d="M405.077,128C343.846,72.436 290.187,64 256,64C229.593,64 127.954,67.087 56,196C47.153,211.429 28.255,214.044 16,204C-3.058,188.798 4.433,167.298 8,161.183C64.601,64.151 145.36,-0.478 256,0C314.573,0.253 379.319,27.216 443.672,80C463.341,62.496 466.105,60.036 466.105,60.036C477.535,49.865 494.967,50.952 505.072,62.307C509.592,67.387 512.045,73.905 511.999,80.773L511.441,183.94C511.46,188.475 505.39,201.538 501.074,202.81C486.713,207.041 470.914,199.978 464,192.209C464,192.209 438.887,164.843 405.077,128Z"/>
    <g transform="matrix(-1,1.22465e-16,-1.22465e-16,-1,513.757,511.997)">
        <path style="fill:currentColor;" d="M405.077,128C343.846,72.436 290.187,64 256,64C229.593,64 127.954,67.087 56,196C47.153,211.429 28.255,214.044 16,204C-3.058,188.798 4.433,167.298 8,161.183C64.601,64.151 145.36,-0.478 256,0C314.573,0.253 379.319,27.216 443.672,80C463.341,62.496 466.105,60.036 466.105,60.036C477.535,49.865 494.967,50.952 505.072,62.307C509.592,67.387 512.045,73.905 511.999,80.773L511.441,183.94C511.46,188.475 505.39,201.538 501.074,202.81C486.713,207.041 470.914,199.978 464,192.209C464,192.209 438.887,164.843 405.077,128Z"/>
    </g>
</svg>
