<?xml version="1.0" encoding="UTF-8" standalone="no"?>
<!DOCTYPE svg PUBLIC "-//W3C//DTD SVG 1.1//EN" "http://www.w3.org/Graphics/SVG/1.1/DTD/svg11.dtd">
<svg width="100%" height="100%" viewBox="0 0 512 512" version="1.1" xmlns="http://www.w3.org/2000/svg" xmlns:xlink="http://www.w3.org/1999/xlink" xml:space="preserve" xmlns:serif="http://www.serif.com/" style="fill-rule:evenodd;clip-rule:evenodd;stroke-linejoin:round;stroke-miterlimit:2;">
    <path d="M15.2,272C6.4,271.5 -0.4,264 0,255.2L0.4,247.2C5.1,153.5 82.4,80 176.2,80L320,80L320,35.6C320,20.3 332.3,8
    347.6,8C354.4,8 361,10.5 366,15.1L442.7,84.1C446.1,87.1 448,91.5 448,96C448,100.5 446.1,104.9
    442.7,107.9L366,176.9C360.9,181.5 354.4,184 347.6,184C332.4,184 320,171.7 320,156.4L320,112L176.2,112C99.5,112
    36.2,172.2 32.4,248.8L32,256.8C31.6,265.6 24,272.4
    15.2,272ZM352,146.5L408.1,96L352,45.5L352,146.5ZM496.8,240C505.6,240.4 512.4,248 512,256.8L511.6,264.8C506.9,358.5
    429.6,432 335.8,432L192,432L192,476.4C192,491.6 179.7,504 164.4,504C157.6,504 151,501.5
    146,496.9L69.3,427.9C65.9,424.9 64,420.5 64,416C64,411.5 65.9,407.1 69.3,404.1L146,335.1C151.1,330.5 157.6,328
    164.4,328C179.6,328 192,340.3 192,355.6L192,400L335.8,400C412.5,400 475.8,339.8 479.6,263.2L480,255.2C480.4,246.4
    488,239.6 496.8,240ZM160,365.5L103.9,416L160,466.5L160,365.5Z" style="fill-rule:nonzero;" fill="currentColor" />
</svg>
