<?xml version="1.0" encoding="UTF-8" standalone="no"?>
<!DOCTYPE svg PUBLIC "-//W3C//DTD SVG 1.1//EN" "http://www.w3.org/Graphics/SVG/1.1/DTD/svg11.dtd">
<svg width="100%" height="100%" viewBox="0 0 512 512" version="1.1" xmlns="http://www.w3.org/2000/svg" xmlns:xlink="http://www.w3.org/1999/xlink" xml:space="preserve" xmlns:serif="http://www.serif.com/" style="fill-rule:evenodd;clip-rule:evenodd;stroke-linecap:round;stroke-linejoin:round;stroke-miterlimit:1.5;">
    <g transform="matrix(-1,1.22465e-16,-1.22465e-16,-1,512,511.978)">
        <path style="fill:currentColor;" d="M410.077,112C348.846,56.436 290.187,47.978 256,47.978C229.593,47.978 103.954,54.87 32,183.783C27.761,191.378 14.26,194.62 6,186C-2.132,177.513 4.433,167.298 8,161.183C64.601,64.151 145.36,15.501 256,15.978C314.573,16.231 368.584,36.768 432.937,89.552C452.606,72.048 466.105,60.036 466.105,60.036C477.535,49.865 494.967,50.952 505.072,62.307C509.592,67.387 512.045,73.905 511.999,80.773L511.441,183.94C511.46,188.475 509.436,192.819 506.074,195.81C502.713,198.802 490.399,202.263 483.485,194.494C483.485,194.494 443.887,148.843 410.077,112ZM479.982,90.523L479.687,142.089L454.209,113.457L479.982,90.523Z"/>
    </g>
    <g transform="matrix(-0.909091,-1.11332e-16,1.16019e-16,-0.947368,481.455,490.947)">
        <path d="M336,138.222C336,114.919 316.284,96 292,96L204,96C179.716,96 160,114.919 160,138.222L160,357.778C160,381.081 179.716,400 204,400L292,400C316.284,400 336,381.081 336,357.778L336,138.222Z" style="fill:none;stroke:currentColor;stroke-width:34.47px;"/>
    </g>
    <path style="fill:currentColor;" d="M410.077,112C348.846,56.436 290.187,48 256,48C229.593,48 103.954,54.87 32,183.783C27.761,191.378 14.26,194.62 6,186C-2.132,177.513 4.433,167.298 8,161.183C64.601,64.151 145.36,15.522 256,16C314.573,16.253 368.584,36.768 432.937,89.552C452.606,72.048 466.105,60.036 466.105,60.036C477.535,49.865 494.967,50.952 505.072,62.307C509.592,67.387 512.045,73.905 511.999,80.773L511.441,183.94C511.46,188.475 509.436,192.819 506.074,195.81C502.713,198.802 490.399,202.263 483.485,194.494C483.485,194.494 443.887,148.843 410.077,112ZM479.982,90.523L479.687,142.089L454.209,113.457L479.982,90.523Z"/>
</svg>
