<?xml version="1.0" encoding="UTF-8" standalone="no"?>
<!DOCTYPE svg PUBLIC "-//W3C//DTD SVG 1.1//EN" "http://www.w3.org/Graphics/SVG/1.1/DTD/svg11.dtd">
<svg width="100%" height="100%" viewBox="0 0 512 512" version="1.1" xmlns="http://www.w3.org/2000/svg" xmlns:xlink="http://www.w3.org/1999/xlink" xml:space="preserve" xmlns:serif="http://www.serif.com/" style="fill-rule:evenodd;clip-rule:evenodd;stroke-linejoin:round;stroke-miterlimit:2;">
    <path fill="currentColor" d="M401.593,365.404L285.583,298.657L285.114,429.916C283.862,458.38 297.972,486.559 324.229,501.658C336.009,508.434 349.361,512 362.949,512C390.942,512 416.852,496.862 430.61,472.469C451.931,434.841 438.988,386.894 401.593,365.404ZM385.635,393.141C385.639,393.144 385.644,393.146 385.649,393.149C407.834,405.898 415.418,434.369 402.769,456.693C402.758,456.712 402.748,456.731 402.737,456.749C394.647,471.094 379.411,480 362.949,480C354.96,480 347.11,477.903 340.184,473.919C340.183,473.919 340.183,473.919 340.182,473.918C324.611,464.964 316.34,448.201 317.083,431.322C317.102,430.892 317.112,430.461 317.113,430.031L317.386,353.874C317.386,353.874 385.635,393.141 385.635,393.141ZM183.413,265.569L32,144L1.973,334.55C-5.949,376.472 10.341,419.467 44.047,445.6C63.79,460.506 87.862,468.573 112.596,468.573C175.027,468.573 226.401,417.171 226.401,354.705C226.401,320.013 210.555,287.156 183.413,265.569ZM163.379,290.521C163.417,290.552 163.455,290.583 163.494,290.613C183.01,306.135 194.401,329.761 194.401,354.705C194.401,399.612 157.478,436.573 112.596,436.573C94.896,436.573 77.668,430.824 63.513,420.199C39.375,401.388 27.736,370.555 33.416,340.491C33.477,340.172 33.532,339.852 33.583,339.531L55.016,203.517C55.016,203.517 163.379,290.521 163.379,290.521ZM325.111,10.48L112,96L290.362,238.173C327.814,269.824 381.068,279.971 429.33,259.776C497.974,231.057 530.262,151.957 501.473,83.118C472.713,14.265 393.742,-18.254 325.111,10.48ZM337.029,40.178C337.176,40.118 337.323,40.058 337.469,39.997C389.81,18.083 450.012,42.942 471.946,95.452C471.948,95.456 471.949,95.461 471.951,95.465C493.913,147.979 469.345,208.347 416.979,230.256C416.978,230.256 416.978,230.256 416.977,230.257C380.176,245.656 339.576,237.867 311.018,213.732C310.784,213.534 310.548,213.34 310.308,213.149L174.92,105.231C174.92,105.231 337.029,40.178 337.029,40.178Z"/>
</svg>
