<?xml version="1.0" encoding="UTF-8" standalone="no"?>
<!DOCTYPE svg PUBLIC "-//W3C//DTD SVG 1.1//EN" "http://www.w3.org/Graphics/SVG/1.1/DTD/svg11.dtd">
<svg width="100%" height="100%" viewBox="0 0 192 512" version="1.1" xmlns="http://www.w3.org/2000/svg" xmlns:xlink="http://www.w3.org/1999/xlink" xml:space="preserve" xmlns:serif="http://www.serif.com/" style="fill-rule:evenodd;clip-rule:evenodd;stroke-linejoin:round;stroke-miterlimit:2;">
    <path d="M96,64C78.445,64 64,78.445 64,96C64,113.555 78.445,128 96,128C113.555,128 128,113.555 128,96C128,78.445
    113.555,64 96,64ZM96,160C60.891,160 32,131.109 32,96C32,60.891 60.891,32 96,32C131.109,32 160,60.891
    160,96C160,131.109 131.109,160 96,160ZM128,256C128,238.445 113.555,224 96,224C78.445,224 64,238.445
    64,256C64,273.555 78.445,288 96,288C113.555,288 128,273.555 128,256ZM32,256C32,220.891 60.891,192 96,192C131.109,192
    160,220.891 160,256C160,291.109 131.109,320 96,320C60.891,320 32,291.109 32,256ZM128,416C128,398.445 113.555,384
    96,384C78.445,384 64,398.445 64,416C64,433.555 78.445,448 96,448C113.555,448 128,433.555 128,416ZM32,416C32,380.891
    60.891,352 96,352C131.109,352 160,380.891 160,416C160,451.109 131.109,480 96,480C60.891,480 32,451.109 32,416Z"
    style="fill-rule:nonzero;" fill="currentColor" />
</svg>
