<?xml version="1.0" encoding="UTF-8" standalone="no"?>
<!DOCTYPE svg PUBLIC "-//W3C//DTD SVG 1.1//EN" "http://www.w3.org/Graphics/SVG/1.1/DTD/svg11.dtd">
<svg width="100%" height="100%" viewBox="0 0 576 512" version="1.1" xmlns="http://www.w3.org/2000/svg" xmlns:xlink="http://www.w3.org/1999/xlink" xml:space="preserve" xmlns:serif="http://www.serif.com/" style="fill-rule:evenodd;clip-rule:evenodd;stroke-linecap:round;stroke-linejoin:round;stroke-miterlimit:1.5;">
    <path id="Speaker" style="fill:currentColor;" d="M301.1,34.8C312.6,40 320,51.4 320,64L320,448C320,460.6 312.6,472 301.1,477.2C289.6,482.4 276.1,480.3 266.7,471.9L131.8,352L64,352C28.7,352 0,323.3 0,288L0,224C0,188.7 28.7,160 64,160L131.8,160L266.7,40.1C276.1,31.7 289.6,29.7 301.1,34.8ZM287,66.208L287,445.792L153.723,327.334C147.682,321.966 139.882,319 131.8,319L64,319C46.902,319 33,305.098 33,288L33,224C33,206.902 46.902,193 64,193L131.8,193C139.882,193 147.682,190.034 153.723,184.666L287,66.208Z"/>
    <g id="Cross" transform="matrix(1,0,0,1,-4,1.5)">
        <path d="M401,174L563,335" style="fill:none;stroke:currentColor;stroke-width:33px;"/>
        <path d="M563,174L401,335" style="fill:none;stroke:currentColor;stroke-width:33px;"/>
    </g>
</svg>
